<svg width="496" height="217" viewBox="0 0 496 217" fill="none" xmlns="http://www.w3.org/2000/svg">
<path d="M485.722 217C483.983 217 482.394 216.603 480.953 215.808C479.513 214.963 478.37 213.821 477.526 212.381C476.731 210.94 476.334 209.351 476.334 207.612C476.334 205.824 476.731 204.235 477.526 202.844C478.37 201.403 479.513 200.286 480.953 199.491C482.394 198.647 483.983 198.224 485.722 198.224C487.51 198.224 489.099 198.647 490.49 199.491C491.931 200.286 493.048 201.403 493.843 202.844C494.687 204.235 495.11 205.824 495.11 207.612C495.11 209.351 494.687 210.94 493.843 212.381C493.048 213.821 491.931 214.963 490.49 215.808C489.099 216.603 487.51 217 485.722 217Z" fill="#0A3323"/>
<path d="M406.952 216.18V160.301H424.089V206.867L419.469 205.824L448.75 160.301H471.4V216.18H454.263V168.571L458.808 169.614L428.931 216.18H406.952ZM418.948 142.941H432.433C433.079 144.431 433.948 145.574 435.041 146.368C436.183 147.113 437.524 147.486 439.064 147.486C440.654 147.486 441.995 147.113 443.088 146.368C444.23 145.574 445.099 144.431 445.695 142.941H459.255C458.063 147.908 455.679 151.484 452.103 153.67C448.527 155.855 444.18 156.948 439.064 156.948C434.047 156.948 429.726 155.855 426.1 153.67C422.524 151.484 420.14 147.908 418.948 142.941Z" fill="#0A3323"/>
<path d="M348.499 206.122V192.264H386.795V206.122H348.499ZM379.419 160.301L404.453 216.18H385.901L365.635 167.826H370.329L349.989 216.18H331.512L356.471 160.301H379.419Z" fill="#0A3323"/>
<path d="M315.329 160.301C320.197 160.301 324.369 161.12 327.846 162.76C331.373 164.399 334.055 166.708 335.893 169.689C337.731 172.619 338.65 176.096 338.65 180.12C338.65 184.093 337.731 187.57 335.893 190.55C334.055 193.531 331.373 195.84 327.846 197.479C324.369 199.119 320.197 199.938 315.329 199.938H291.413V186.229H314.212C316.397 186.229 318.086 185.683 319.278 184.59C320.52 183.497 321.141 182.007 321.141 180.12C321.141 178.133 320.52 176.618 319.278 175.575C318.086 174.532 316.397 174.01 314.212 174.01H292.903L300.726 166.112V216.18H283.366V160.301H315.329Z" fill="#0A3323"/>
<path d="M211.462 216.18V160.301H228.598V206.867L223.979 205.824L253.26 160.301H275.91V216.18H258.773V168.571L263.318 169.614L233.441 216.18H211.462Z" fill="#0A3323"/>
<path d="M161.505 181.163H185.719C190.587 181.163 194.561 181.908 197.64 183.398C200.769 184.838 203.054 186.875 204.495 189.507C205.985 192.09 206.73 195.17 206.73 198.746C206.73 202.273 205.91 205.352 204.271 207.985C202.632 210.568 200.248 212.579 197.119 214.02C193.989 215.46 190.19 216.18 185.719 216.18H148.615L152.862 187.347L148.615 160.301H202.558V173.19H159.27L165.901 165.367L169.328 186.974L165.528 211.636L158.972 203.812H183.335C185.272 203.812 186.787 203.341 187.88 202.397C188.973 201.403 189.519 200.013 189.519 198.224C189.519 196.486 188.948 195.145 187.805 194.201C186.713 193.208 185.223 192.711 183.335 192.711H161.505V181.163Z" fill="#0A3323"/>
<path d="M65.9775 216.18V160.301H83.3375V210.369L75.5143 202.62H96.7485C98.934 202.62 100.648 202.074 101.889 200.981C103.131 199.839 103.752 198.299 103.752 196.362C103.752 194.375 103.131 192.835 101.889 191.742C100.648 190.65 98.934 190.103 96.7485 190.103H74.0242V176.543H97.8661C102.784 176.543 106.981 177.363 110.458 179.002C113.935 180.641 116.592 182.951 118.43 185.931C120.317 188.911 121.261 192.388 121.261 196.362C121.261 200.385 120.317 203.887 118.43 206.867C116.592 209.798 113.935 212.083 110.458 213.722C106.981 215.361 102.784 216.18 97.8661 216.18H65.9775ZM125.433 160.301H142.793V216.18H125.433V160.301Z" fill="#0A3323"/>
<path d="M40.7548 188.911L42.1704 185.782C46.3924 185.881 49.9191 186.552 52.7503 187.794C55.5815 188.986 57.6925 190.65 59.0833 192.786C60.4741 194.921 61.1695 197.43 61.1695 200.311C61.1695 203.341 60.4741 206.072 59.0833 208.506C57.7422 210.891 55.6809 212.778 52.8993 214.169C50.1177 215.51 46.6656 216.18 42.543 216.18H0L4.24684 187.496L0 160.301H40.9783C46.1441 160.301 50.1674 161.518 53.0483 163.952C55.9789 166.336 57.4442 169.664 57.4442 173.936C57.4442 176.32 56.8978 178.58 55.805 180.716C54.7619 182.851 52.9986 184.664 50.5151 186.154C48.0812 187.595 44.8278 188.514 40.7548 188.911ZM16.9874 212.306L10.3563 204.408H37.402C39.3392 204.408 40.8542 203.937 41.9469 202.993C43.0397 201.999 43.586 200.634 43.586 198.895C43.586 197.256 43.0148 195.915 41.8724 194.872C40.73 193.779 39.066 193.233 36.8805 193.233H14.3797V181.759H34.4218C35.9616 181.759 37.253 181.287 38.2961 180.343C39.3392 179.399 39.8607 178.158 39.8607 176.618C39.8607 175.326 39.3889 174.258 38.4451 173.414C37.5511 172.52 36.2596 172.073 34.5708 172.073H10.4308L16.9874 164.175L20.7872 187.496L16.9874 212.306Z" fill="#0A3323"/>
<path d="M326.118 136.849C324.38 136.849 322.79 136.452 321.35 135.657C319.909 134.813 318.767 133.671 317.923 132.23C317.128 130.79 316.73 129.2 316.73 127.462C316.73 125.674 317.128 124.084 317.923 122.693C318.767 121.253 319.909 120.135 321.35 119.341C322.79 118.496 324.38 118.074 326.118 118.074C327.906 118.074 329.496 118.496 330.887 119.341C332.327 120.135 333.445 121.253 334.239 122.693C335.084 124.084 335.506 125.674 335.506 127.462C335.506 129.2 335.084 130.79 334.239 132.23C333.445 133.671 332.327 134.813 330.887 135.657C329.496 136.452 327.906 136.849 326.118 136.849Z" fill="#0A3323"/>
<path d="M247.356 136.03V80.1504H264.493V126.717L259.873 125.674L289.154 80.1504H311.804V136.03H294.668V88.4206L299.213 89.4637L269.336 136.03H247.356Z" fill="#0A3323"/>
<path d="M205.178 87.6755H222.538V136.03H205.178V87.6755ZM184.466 80.1504H243.251V95.5731H184.466V80.1504Z" fill="#0A3323"/>
<path d="M184.91 112.263C184.314 117.23 182.576 121.601 179.695 125.376C176.864 129.151 173.089 132.081 168.37 134.167C163.701 136.253 158.337 137.297 152.277 137.297C145.72 137.297 139.983 136.08 135.066 133.646C130.149 131.212 126.324 127.809 123.592 123.438C120.86 119.067 119.494 113.951 119.494 108.09C119.494 102.229 120.86 97.1129 123.592 92.7419C126.324 88.3709 130.149 84.9685 135.066 82.5346C139.983 80.1007 145.72 78.8838 152.277 78.8838C158.337 78.8838 163.701 79.9269 168.37 82.013C173.089 84.0992 176.864 87.0298 179.695 90.8048C182.576 94.5301 184.314 98.9011 184.91 103.918H167.476C166.979 101.782 166.06 99.969 164.719 98.4789C163.428 96.9391 161.739 95.7718 159.653 94.9771C157.567 94.1327 155.108 93.7105 152.277 93.7105C149.098 93.7105 146.366 94.2817 144.081 95.4241C141.796 96.5666 140.033 98.2305 138.791 100.416C137.549 102.552 136.929 105.11 136.929 108.09C136.929 111.07 137.549 113.628 138.791 115.764C140.033 117.9 141.796 119.564 144.081 120.756C146.366 121.899 149.098 122.47 152.277 122.47C155.108 122.47 157.567 122.097 159.653 121.352C161.739 120.558 163.428 119.39 164.719 117.85C166.06 116.311 166.979 114.448 167.476 112.263H184.91Z" fill="#0A3323"/>
<path d="M66.6934 125.972V112.113H104.99V125.972H66.6934ZM97.6134 80.1504L122.647 136.03H104.095L83.8298 87.6755H88.5237L68.1836 136.03H49.7061L74.6656 80.1504H97.6134Z" fill="#0A3323"/>
<path d="M33.5236 80.1504C38.3914 80.1504 42.5637 80.97 46.0407 82.6091C49.5673 84.2482 52.2495 86.5579 54.0873 89.5382C55.9251 92.4687 56.844 95.9457 56.844 99.969C56.844 103.943 55.9251 107.42 54.0873 110.4C52.2495 113.38 49.5673 115.69 46.0407 117.329C42.5637 118.968 38.3914 119.788 33.5236 119.788H9.6072V106.079H32.4061C34.5916 106.079 36.2804 105.532 37.4725 104.439C38.7142 103.347 39.3351 101.856 39.3351 99.969C39.3351 97.9822 38.7142 96.4672 37.4725 95.4241C36.2804 94.3811 34.5916 93.8595 32.4061 93.8595H11.0973L18.9205 85.9619V136.03H1.56055V80.1504H33.5236Z" fill="#0A3323"/>
<path d="M335.793 56.6991C334.055 56.6991 332.465 56.3017 331.025 55.507C329.584 54.6626 328.442 53.5202 327.597 52.0797C326.803 50.6393 326.405 49.0498 326.405 47.3113C326.405 45.5232 326.803 43.9337 327.597 42.543C328.442 41.1025 329.584 39.9849 331.025 39.1902C332.465 38.3458 334.055 37.9236 335.793 37.9236C337.581 37.9236 339.171 38.3458 340.561 39.1902C342.002 39.9849 343.119 41.1025 343.914 42.543C344.759 43.9337 345.181 45.5232 345.181 47.3113C345.181 49.0498 344.759 50.6393 343.914 52.0797C343.119 53.5202 342.002 54.6626 340.561 55.507C339.171 56.3017 337.581 56.6991 335.793 56.6991Z" fill="#0A3323"/>
<path d="M257.032 55.8795V0H274.169V46.5663L269.549 45.5232L298.83 0H321.48V55.8795H304.344V8.27017L308.888 9.31326L279.012 55.8795H257.032Z" fill="#0A3323"/>
<path d="M214.853 7.52511H232.213V55.8795H214.853V7.52511ZM194.141 0H252.926V15.4228H194.141V0Z" fill="#0A3323"/>
<path d="M189.227 21.8303V34.0493H147.728V21.8303H189.227ZM159.574 27.9398L156.072 49.5465L149.292 42.0214H191.835V55.8795H138.861L143.034 27.9398L138.861 0H191.463V13.8581H149.292L156.072 6.33302L159.574 27.9398Z" fill="#0A3323"/>
<path d="M115.208 28.6103L116.624 25.4811C120.846 25.5804 124.372 26.251 127.203 27.4927C130.035 28.6848 132.146 30.3488 133.536 32.4846C134.927 34.6205 135.623 37.1288 135.623 40.0098C135.623 43.0397 134.927 45.7716 133.536 48.2054C132.195 50.5896 130.134 52.4771 127.352 53.8679C124.571 55.209 121.119 55.8795 116.996 55.8795H74.4531L78.7 27.1947L74.4531 0H115.431C120.597 0 124.621 1.21693 127.501 3.6508C130.432 6.03499 131.897 9.36293 131.897 13.6346C131.897 16.0188 131.351 18.2788 130.258 20.4147C129.215 22.5505 127.452 24.3635 124.968 25.8536C122.534 27.2941 119.281 28.213 115.208 28.6103ZM91.4405 52.0052L84.8095 44.1076H111.855C113.792 44.1076 115.307 43.6357 116.4 42.692C117.493 41.6986 118.039 40.3326 118.039 38.5941C118.039 36.955 117.468 35.6139 116.326 34.5708C115.183 33.4781 113.519 32.9317 111.334 32.9317H88.8328V21.4577H108.875C110.415 21.4577 111.706 20.9859 112.749 20.0421C113.792 19.0984 114.314 17.8566 114.314 16.3168C114.314 15.0254 113.842 13.9575 112.898 13.1131C112.004 12.219 110.713 11.772 109.024 11.772H84.884L91.4405 3.87432L95.2403 27.1947L91.4405 52.0052Z" fill="#0A3323"/>
<path d="M61.5379 0V46.2683L55.2049 40.5313H71.1492V67.0555H54.9069V52.5268L59.0792 55.8795H1.56055V0H18.9205V46.2683L13.1835 40.5313H50.511L44.178 46.2683V0H61.5379Z" fill="#0A3323"/>
</svg>
